<svg xmlns="http://www.w3.org/2000/svg" style="isolation:isolate" viewBox="0 0 775.39 132"><defs><clipPath id="a"><path d="M0 0h775.39v132H0z"/></clipPath></defs><g clip-path="url(#a)"><path d="M775.395 124c0 4.4-3.6 8-8 8H8c-4.4 0-8-3.6-8-8V8c0-4.4 3.6-8 8-8h759.395c4.4 0 8 3.6 8 8v116z" fill="#328538"/><path d="M775.395 124c0 4.4-3.6 8-8 8H8c-4.4 0-8-3.6-8-8V8c0-4.4 3.6-8 8-8h759.395c4.4 0 8 3.6 8 8v116z" fill="none" vector-effect="non-scaling-stroke" stroke-width="4" stroke="#328538" stroke-miterlimit="10"/><path d="M178.168 56.127c-1.033-1.4-2.38-2.424-4.039-3.07-1.66-.645-3.284-.968-4.869-.968-2.028 0-3.872.368-5.532 1.106a13.005 13.005 0 0 0-4.287 3.042c-1.198 1.292-2.121 2.804-2.766 4.538-.646 1.733-.968 3.614-.968 5.642 0 2.14.313 4.093.941 5.864.627 1.771 1.521 3.291 2.683 4.563a12.012 12.012 0 0 0 4.176 2.96c1.622.703 3.448 1.052 5.477 1.052 2.103 0 3.964-.415 5.588-1.244 1.623-.831 2.932-1.928 3.928-3.292l5.587 3.926a17.878 17.878 0 0 1-6.362 5.063c-2.509 1.198-5.441 1.799-8.796 1.799-3.062 0-5.873-.508-8.437-1.523-2.564-1.014-4.767-2.433-6.611-4.258-1.844-1.826-3.282-4.002-4.314-6.53-1.034-2.524-1.55-5.318-1.55-8.38 0-3.134.544-5.965 1.632-8.492 1.088-2.527 2.582-4.674 4.482-6.445 1.898-1.77 4.14-3.135 6.721-4.094 2.581-.958 5.384-1.437 8.408-1.437 1.255 0 2.564.119 3.928.359 1.365.24 2.675.608 3.928 1.105a19.141 19.141 0 0 1 3.541 1.855 11.42 11.42 0 0 1 2.82 2.654l-5.309 4.205m13.056 16.597c0 1.032.156 2.065.471 3.097a8.468 8.468 0 0 0 1.41 2.767 7.381 7.381 0 0 0 2.378 1.991c.96.517 2.102.774 3.43.774 1.328 0 2.471-.257 3.43-.774a7.42 7.42 0 0 0 2.38-1.991 8.566 8.566 0 0 0 1.41-2.767 10.66 10.66 0 0 0 .47-3.097c0-1.033-.158-2.056-.47-3.071a8.637 8.637 0 0 0-1.41-2.738 7.1 7.1 0 0 0-2.38-1.963c-.959-.5-2.102-.748-3.43-.748-1.328 0-2.47.248-3.43.748a7.063 7.063 0 0 0-2.378 1.963 8.536 8.536 0 0 0-1.41 2.738 10.303 10.303 0 0 0-.471 3.071zm-6.749 0c0-2.103.377-4.011 1.134-5.726.755-1.714 1.779-3.181 3.07-4.398 1.29-1.217 2.821-2.157 4.592-2.821 1.77-.664 3.65-.996 5.642-.996 1.992 0 3.872.332 5.643.996 1.771.664 3.3 1.604 4.592 2.821 1.291 1.217 2.313 2.684 3.071 4.398.754 1.715 1.133 3.623 1.133 5.726 0 2.103-.379 4.02-1.133 5.753-.758 1.733-1.78 3.218-3.071 4.454-1.292 1.236-2.821 2.203-4.592 2.903-1.771.7-3.651 1.052-5.643 1.052s-3.872-.352-5.642-1.052c-1.771-.7-3.302-1.667-4.592-2.903-1.291-1.236-2.315-2.721-3.07-4.454-.757-1.733-1.134-3.65-1.134-5.753m33.91-13.167h6.307v4.26h.111c.589-1.328 1.612-2.498 3.069-3.513 1.457-1.015 3.181-1.521 5.173-1.521 1.734 0 3.218.303 4.454.912 1.234.609 2.249 1.412 3.042 2.408a9.715 9.715 0 0 1 1.742 3.429 14.43 14.43 0 0 1 .554 3.983v16.597h-6.638V71.396c0-.775-.056-1.586-.167-2.435a6.59 6.59 0 0 0-.719-2.294 4.775 4.775 0 0 0-1.521-1.688c-.647-.443-1.504-.664-2.572-.664-1.071 0-1.992.212-2.767.637a5.872 5.872 0 0 0-1.908 1.631 7.188 7.188 0 0 0-1.134 2.296 9.124 9.124 0 0 0-.387 2.628v14.605h-6.639V59.557m30.814 0h6.306v4.26h.111c.588-1.328 1.612-2.498 3.069-3.513 1.458-1.015 3.182-1.521 5.174-1.521 1.732 0 3.217.303 4.452.912 1.236.609 2.25 1.412 3.044 2.408a9.713 9.713 0 0 1 1.741 3.429c.369 1.292.553 2.619.553 3.983v16.597h-6.638V71.396c0-.775-.055-1.586-.166-2.435a6.569 6.569 0 0 0-.718-2.294 4.788 4.788 0 0 0-1.522-1.688c-.646-.443-1.504-.664-2.572-.664-1.07 0-1.992.212-2.766.637a5.851 5.851 0 0 0-1.908 1.631 7.169 7.169 0 0 0-1.135 2.296 9.124 9.124 0 0 0-.387 2.628v14.605h-6.638V59.557m49.51 10.622c0-.848-.12-1.66-.358-2.435a5.614 5.614 0 0 0-1.135-2.047c-.516-.588-1.171-1.06-1.964-1.411-.793-.349-1.724-.525-2.793-.525-1.992 0-3.679.6-5.063 1.799-1.383 1.198-2.148 2.737-2.295 4.619h13.608zm6.639 2.988v.885c0 .294-.019.589-.055.884h-20.192c.072.96.322 1.836.747 2.628a6.69 6.69 0 0 0 1.687 2.048 8.437 8.437 0 0 0 2.378 1.355 7.86 7.86 0 0 0 2.767.497c1.659 0 3.06-.304 4.204-.912a7.856 7.856 0 0 0 2.821-2.518l4.426 3.541c-2.619 3.541-6.418 5.311-11.396 5.311-2.066 0-3.964-.323-5.698-.969-1.734-.644-3.236-1.557-4.509-2.738-1.272-1.179-2.268-2.627-2.987-4.342-.72-1.716-1.078-3.661-1.078-5.837 0-2.139.358-4.084 1.078-5.836.719-1.752 1.706-3.245 2.96-4.481 1.254-1.235 2.738-2.194 4.452-2.878 1.716-.681 3.57-1.022 5.56-1.022 1.844 0 3.55.303 5.118.912a11.122 11.122 0 0 1 4.066 2.71c1.143 1.2 2.038 2.693 2.683 4.483.645 1.788.968 3.881.968 6.279m23.179-6.252c-.518-.738-1.291-1.355-2.324-1.852-1.032-.5-2.084-.748-3.152-.748-1.218 0-2.288.248-3.21.748a6.992 6.992 0 0 0-2.296 1.962 8.446 8.446 0 0 0-1.354 2.739 10.907 10.907 0 0 0-.443 3.07c0 1.033.156 2.057.471 3.07a8.538 8.538 0 0 0 1.409 2.739 7.183 7.183 0 0 0 2.352 1.964c.94.498 2.037.746 3.292.746a8.386 8.386 0 0 0 3.097-.608c1.032-.405 1.862-.996 2.49-1.77l4.149 4.204c-1.107 1.181-2.517 2.094-4.232 2.738-1.715.646-3.568.969-5.56.969-1.956 0-3.808-.314-5.56-.941-1.752-.626-3.283-1.549-4.592-2.766-1.309-1.218-2.341-2.691-3.097-4.426-.756-1.733-1.134-3.707-1.134-5.919 0-2.138.378-4.074 1.134-5.809.756-1.733 1.778-3.208 3.07-4.425a13.728 13.728 0 0 1 4.508-2.821c1.715-.664 3.55-.996 5.506-.996 1.954 0 3.844.369 5.67 1.106 1.826.738 3.272 1.752 4.342 3.043l-4.536 3.983m6.417-2.047v-5.311h4.647v-7.689h6.528v7.689h6.638v5.311h-6.638v12.336c0 1.181.212 2.157.636 2.932.424.774 1.373 1.161 2.849 1.161.443 0 .921-.045 1.439-.137a5.718 5.718 0 0 0 1.382-.415l.222 5.2c-.591.222-1.291.395-2.103.526-.811.129-1.585.194-2.323.194-1.77 0-3.209-.25-4.314-.748-1.107-.497-1.984-1.18-2.628-2.047-.646-.865-1.088-1.862-1.328-2.986a17.355 17.355 0 0 1-.36-3.624V64.868h-4.647m29.872 0v-5.311h4.648v-7.689h6.527v7.689h6.638v5.311h-6.638v12.336c0 1.181.212 2.157.637 2.932.423.774 1.373 1.161 2.849 1.161.443 0 .92-.045 1.438-.137a5.704 5.704 0 0 0 1.382-.415l.222 5.2c-.591.222-1.291.395-2.102.526-.812.129-1.586.194-2.324.194-1.77 0-3.208-.25-4.314-.748-1.107-.497-1.983-1.18-2.628-2.047-.646-.865-1.088-1.862-1.328-2.986a17.356 17.356 0 0 1-.359-3.624V64.868h-4.648m26.444 7.856c0 1.032.156 2.065.469 3.097a8.512 8.512 0 0 0 1.412 2.767 7.381 7.381 0 0 0 2.378 1.991c.958.517 2.102.774 3.43.774 1.328 0 2.471-.257 3.43-.774a7.392 7.392 0 0 0 2.378-1.991 8.531 8.531 0 0 0 1.412-2.767 10.66 10.66 0 0 0 .47-3.097c0-1.033-.158-2.056-.47-3.071a8.601 8.601 0 0 0-1.412-2.738 7.072 7.072 0 0 0-2.378-1.963c-.959-.5-2.102-.748-3.43-.748-1.328 0-2.472.248-3.43.748a7.063 7.063 0 0 0-2.378 1.963 8.58 8.58 0 0 0-1.412 2.738 10.365 10.365 0 0 0-.469 3.071zm-6.749 0c0-2.103.377-4.011 1.133-5.726.756-1.714 1.779-3.181 3.071-4.398 1.29-1.217 2.821-2.157 4.592-2.821 1.77-.664 3.65-.996 5.642-.996 1.992 0 3.872.332 5.643.996 1.771.664 3.3 1.604 4.592 2.821 1.291 1.217 2.313 2.684 3.071 4.398.754 1.715 1.133 3.623 1.133 5.726 0 2.103-.379 4.02-1.133 5.753-.758 1.733-1.78 3.218-3.071 4.454-1.292 1.236-2.821 2.203-4.592 2.903-1.771.7-3.651 1.052-5.643 1.052s-3.872-.352-5.642-1.052c-1.771-.7-3.302-1.667-4.592-2.903-1.292-1.236-2.315-2.721-3.071-4.454-.756-1.733-1.133-3.65-1.133-5.753" fill="#FFF"/><path d="M449.899 52.2c-1.882 0-3.643.351-5.283 1.051-1.641.701-3.053 1.658-4.233 2.876-1.18 1.217-2.111 2.674-2.794 4.371-.682 1.697-1.024 3.541-1.024 5.531 0 2.103.323 4.011.968 5.727.646 1.715 1.551 3.18 2.712 4.397 1.162 1.217 2.554 2.167 4.176 2.85 1.623.682 3.412 1.022 5.367 1.022 1.917 0 3.696-.34 5.339-1.022 1.64-.683 3.05-1.633 4.232-2.85 1.178-1.217 2.101-2.682 2.765-4.397.664-1.716.996-3.624.996-5.727 0-1.99-.313-3.834-.94-5.531-.628-1.697-1.521-3.154-2.683-4.371-1.162-1.218-2.554-2.175-4.177-2.876-1.623-.7-3.429-1.051-5.421-1.051zm23.51 33.912h-23.621c-3.136 0-5.984-.452-8.548-1.356-2.563-.904-4.757-2.213-6.583-3.928-1.825-1.715-3.236-3.818-4.232-6.307-.996-2.489-1.493-5.318-1.493-8.492 0-2.986.525-5.707 1.576-8.16 1.052-2.452 2.517-4.564 4.399-6.333 1.88-1.771 4.101-3.144 6.665-4.123 2.564-.976 5.339-1.464 8.327-1.464 2.986 0 5.753.488 8.298 1.464 2.544.979 4.748 2.352 6.611 4.123 1.861 1.769 3.309 3.881 4.341 6.333 1.034 2.453 1.551 5.174 1.551 8.16 0 1.771-.204 3.393-.609 4.868-.407 1.476-.932 2.813-1.578 4.011a15.475 15.475 0 0 1-2.212 3.155 16.224 16.224 0 0 1-2.573 2.294v.111h9.681v5.644m27.439 0h-6.307v-4.261h-.11c-.591 1.328-1.614 2.498-3.07 3.513-1.457 1.015-3.181 1.522-5.173 1.522-1.733 0-3.217-.305-4.453-.913-1.236-.609-2.25-1.41-3.042-2.408a9.677 9.677 0 0 1-1.744-3.429 14.461 14.461 0 0 1-.553-3.983V59.557h6.639v14.716c0 .773.056 1.586.166 2.434.111.849.351 1.613.719 2.296a4.767 4.767 0 0 0 1.521 1.686c.646.443 1.503.664 2.572.664 1.034 0 1.946-.212 2.74-.636.792-.424 1.438-.968 1.936-1.632a7.23 7.23 0 0 0 1.134-2.296 9.19 9.19 0 0 0 .386-2.626V59.557h6.639v26.555m6.693-26.555h6.639v26.555h-6.639V59.557zm-.941-9.017c0-1.069.397-2 1.189-2.795.794-.792 1.799-1.188 3.016-1.188 1.218 0 2.24.379 3.07 1.134.83.757 1.245 1.705 1.245 2.849 0 1.143-.415 2.093-1.245 2.849-.83.756-1.852 1.133-3.07 1.133-1.217 0-2.222-.395-3.016-1.188-.792-.793-1.189-1.724-1.189-2.794zm32.419 16.375c-.518-.738-1.291-1.355-2.324-1.852-1.032-.5-2.084-.748-3.154-.748-1.217 0-2.286.248-3.208.748a6.962 6.962 0 0 0-2.296 1.962 8.47 8.47 0 0 0-1.356 2.739 10.978 10.978 0 0 0-.442 3.07c0 1.033.157 2.057.47 3.07a8.583 8.583 0 0 0 1.411 2.739 7.183 7.183 0 0 0 2.352 1.964c.94.498 2.036.746 3.291.746a8.395 8.395 0 0 0 3.098-.608c1.032-.405 1.862-.996 2.49-1.77l4.149 4.204c-1.107 1.181-2.517 2.094-4.232 2.738-1.716.646-3.568.969-5.56.969-1.956 0-3.809-.314-5.56-.941-1.752-.626-3.283-1.549-4.592-2.766-1.309-1.218-2.343-2.691-3.097-4.426-.758-1.733-1.135-3.707-1.135-5.919 0-2.138.377-4.074 1.135-5.809.754-1.733 1.778-3.208 3.07-4.425a13.718 13.718 0 0 1 4.508-2.821c1.715-.664 3.55-.996 5.504-.996 1.955 0 3.846.369 5.671 1.106 1.825.738 3.272 1.752 4.343 3.043l-4.536 3.983m7.578-22.627h6.639v26.444h.165l10.07-11.175h8.518l-11.506 12.006 12.225 14.549h-8.795l-10.512-13.609h-.165v13.609h-6.639V44.288zm35.847 35.958h6.252c.885 0 1.843-.063 2.876-.193a9.396 9.396 0 0 0 2.849-.802 5.593 5.593 0 0 0 2.158-1.77c.572-.774.857-1.808.857-3.097 0-2.065-.701-3.504-2.101-4.316-1.403-.811-3.523-1.217-6.363-1.217h-6.528v11.395zm0-17.37h6.196c2.324 0 4.093-.46 5.311-1.383 1.217-.921 1.826-2.23 1.826-3.928 0-1.77-.628-3.022-1.881-3.761-1.255-.739-3.209-1.107-5.864-1.107h-5.588v10.179zm-6.969-15.932h15.268c1.474 0 2.932.175 4.37.525 1.439.351 2.719.923 3.844 1.715 1.126.793 2.038 1.817 2.739 3.071.7 1.253 1.052 2.765 1.052 4.536 0 2.213-.628 4.038-1.881 5.477-1.255 1.439-2.896 2.471-4.924 3.097v.111c2.47.332 4.5 1.292 6.085 2.877 1.585 1.587 2.379 3.707 2.379 6.363 0 2.139-.424 3.936-1.272 5.393-.85 1.456-1.964 2.627-3.348 3.512-1.383.886-2.968 1.522-4.756 1.91a25.792 25.792 0 0 1-5.45.581h-14.106V46.944m39.277 25.78c0 1.032.156 2.065.469 3.097a8.49 8.49 0 0 0 1.411 2.767 7.395 7.395 0 0 0 2.379 1.991c.958.517 2.102.774 3.43.774 1.327 0 2.47-.257 3.43-.774a7.413 7.413 0 0 0 2.378-1.991 8.51 8.51 0 0 0 1.411-2.767c.313-1.032.471-2.065.471-3.097 0-1.033-.158-2.056-.471-3.071a8.578 8.578 0 0 0-1.411-2.738 7.092 7.092 0 0 0-2.378-1.963c-.96-.5-2.103-.748-3.43-.748-1.328 0-2.472.248-3.43.748a7.076 7.076 0 0 0-2.379 1.963 8.558 8.558 0 0 0-1.411 2.738 10.365 10.365 0 0 0-.469 3.071zm-6.749 0c0-2.103.377-4.011 1.133-5.726.756-1.714 1.779-3.181 3.071-4.398 1.29-1.217 2.821-2.157 4.59-2.821 1.771-.664 3.652-.996 5.644-.996 1.991 0 3.872.332 5.643.996 1.769.664 3.3 1.604 4.591 2.821 1.29 1.217 2.314 2.684 3.07 4.398.756 1.715 1.135 3.623 1.135 5.726 0 2.103-.379 4.02-1.135 5.753-.756 1.733-1.78 3.218-3.07 4.454-1.291 1.236-2.822 2.203-4.591 2.903-1.771.7-3.652 1.052-5.643 1.052-1.992 0-3.873-.352-5.644-1.052-1.769-.7-3.3-1.667-4.59-2.903-1.292-1.236-2.315-2.721-3.071-4.454-.756-1.733-1.133-3.65-1.133-5.753m39.11 0c0 1.032.156 2.065.471 3.097a8.47 8.47 0 0 0 1.411 2.767 7.367 7.367 0 0 0 2.377 1.991c.96.517 2.103.774 3.431.774 1.328 0 2.47-.257 3.429-.774a7.41 7.41 0 0 0 2.38-1.991 8.588 8.588 0 0 0 1.411-2.767c.312-1.032.469-2.065.469-3.097 0-1.033-.157-2.056-.469-3.071a8.66 8.66 0 0 0-1.411-2.738 7.09 7.09 0 0 0-2.38-1.963c-.959-.5-2.101-.748-3.429-.748-1.328 0-2.471.248-3.431.748a7.05 7.05 0 0 0-2.377 1.963 8.538 8.538 0 0 0-1.411 2.738 10.303 10.303 0 0 0-.471 3.071zm-6.749 0c0-2.103.377-4.011 1.135-5.726.754-1.714 1.778-3.181 3.069-4.398 1.291-1.217 2.821-2.157 4.592-2.821 1.771-.664 3.651-.996 5.643-.996s3.872.332 5.642.996c1.771.664 3.3 1.604 4.592 2.821 1.291 1.217 2.314 2.684 3.071 4.398.755 1.715 1.133 3.623 1.133 5.726 0 2.103-.378 4.02-1.133 5.753-.757 1.733-1.78 3.218-3.071 4.454-1.292 1.236-2.821 2.203-4.592 2.903-1.77.7-3.65 1.052-5.642 1.052-1.992 0-3.872-.352-5.643-1.052-1.771-.7-3.301-1.667-4.592-2.903-1.291-1.236-2.315-2.721-3.069-4.454-.758-1.733-1.135-3.65-1.135-5.753m34.021-28.436h6.638v26.444h.166l10.068-11.175h8.52l-11.506 12.006 12.226 14.549H691.7l-10.511-13.609h-.166v13.609h-6.638V44.288z" fill="#F4F5F5"/><path d="M717.149 66.639c-.589-.775-1.402-1.448-2.433-2.02a6.867 6.867 0 0 0-3.376-.858c-1.069 0-2.047.222-2.932.664-.885.443-1.328 1.182-1.328 2.214 0 1.033.489 1.759 1.467 2.185.976.424 2.405.856 4.288 1.298.996.222 2 .518 3.014.886 1.014.369 1.936.857 2.767 1.467a7.23 7.23 0 0 1 2.019 2.268c.516.903.773 2.001.773 3.291 0 1.623-.303 2.997-.912 4.122a7.773 7.773 0 0 1-2.433 2.739c-1.015.7-2.196 1.208-3.542 1.52a18.318 18.318 0 0 1-4.177.471c-2.064 0-4.075-.379-6.029-1.134-1.956-.756-3.579-1.835-4.868-3.237l4.37-4.094c.738.96 1.695 1.752 2.876 2.379 1.18.628 2.49.94 3.928.94.479 0 .968-.055 1.466-.165.498-.111.96-.286 1.384-.526.424-.24.764-.561 1.024-.968.256-.406.386-.904.386-1.493 0-1.107-.508-1.9-1.521-2.379-1.016-.48-2.536-.96-4.564-1.438a21.777 21.777 0 0 1-2.904-.859 9.374 9.374 0 0 1-2.517-1.383 6.382 6.382 0 0 1-1.771-2.129c-.443-.848-.664-1.899-.664-3.154 0-1.474.304-2.746.912-3.817a7.867 7.867 0 0 1 2.408-2.628c.995-.682 2.12-1.188 3.373-1.52a15.082 15.082 0 0 1 3.874-.498c1.917 0 3.789.332 5.614.996 1.827.664 3.274 1.677 4.343 3.042l-4.315 3.818" fill="#F4F5F5"/><path d="M95.897 66.634c0-9.662-7.862-17.524-17.525-17.524h-1.604v6.157h1.604c6.269 0 11.368 5.1 11.368 11.367 0 6.27-5.099 11.37-11.368 11.37h-5.507v-37.37h-6.157V84.16h11.664c9.663 0 17.525-7.862 17.525-17.526zM62.793 49.11H51.13c-9.663 0-17.525 7.862-17.525 17.524 0 9.664 7.862 17.526 17.525 17.526h1.604v-6.156H51.13c-6.269 0-11.369-5.1-11.369-11.37 0-6.267 5.1-11.367 11.369-11.367h5.506v37.367h6.157V49.11zm45.991 17.557c0 24.301-19.7 44-44 44-24.301 0-44-19.699-44-44 0-24.3 19.699-44 44-44 24.3 0 44 19.7 44 44z" fill="#FFF"/></g></svg>